REM DIRINDEX 1\2,1\3,1\4
REM DIRNAME folder01,folder02,folder03,folder04
TITLE ""
FILE "Track30.mp3" MP3
  TRACK 01 AUDIO
    TITLE "0:"
    INDEX 01 00:00:00
  TRACK 02 AUDIO
    TITLE "4:cjc153_1796"
    INDEX 01 00:00:03
  TRACK 03 AUDIO
    TITLE "0:"
    INDEX 01 00:01:60
  TRACK 04 AUDIO
    TITLE "2:cjc153_1797"
    INDEX 01 00:02:42
  TRACK 05 AUDIO
    TITLE "0:"
    INDEX 01 00:03:45
  TRACK 06 AUDIO
    TITLE "3:cjc153_1798"
    INDEX 01 00:04:03
  TRACK 07 AUDIO
    TITLE "0:"
    INDEX 01 00:05:12
  TRACK 08 AUDIO
    TITLE "2:cjc153_1799"
    INDEX 01 00:05:57
  TRACK 09 AUDIO
    TITLE "0:"
    INDEX 01 00:06:69
  TRACK 10 AUDIO
    TITLE "3:cjc153_1800"
    INDEX 01 00:07:29
  TRACK 11 AUDIO
    TITLE "0:"
    INDEX 01 00:08:54
  TRACK 12 AUDIO
    TITLE "2:cjc153_1801"
    INDEX 01 00:09:24
  TRACK 13 AUDIO
    TITLE "0:"
    INDEX 01 00:10:21
  TRACK 14 AUDIO
    TITLE "3:cjc153_1802"
    INDEX 01 00:10:53
  TRACK 15 AUDIO
    TITLE "0:"
    INDEX 01 00:11:64
  TRACK 16 AUDIO
    TITLE "2:cjc153_1803"
    INDEX 01 00:12:32
  TRACK 17 AUDIO
    TITLE "0:"
    INDEX 01 00:13:51
  TRACK 18 AUDIO
    TITLE "3:cjc153_1804"
    INDEX 01 00:14:07
  TRACK 19 AUDIO
    TITLE "0:"
    INDEX 01 00:15:27
  TRACK 20 AUDIO
    TITLE "2:cjc153_1805"
    INDEX 01 00:15:70
  TRACK 21 AUDIO
    TITLE "0:"
    INDEX 01 00:16:73
  TRACK 22 AUDIO
    TITLE "3:cjc153_1806"
    INDEX 01 00:17:27
  TRACK 23 AUDIO
    TITLE "0:"
    INDEX 01 00:18:27
  TRACK 24 AUDIO
    TITLE "2:cjc153_1807"
    INDEX 01 00:18:74
  TRACK 25 AUDIO
    TITLE "0:"
    INDEX 01 00:20:18
  TRACK 26 AUDIO
    TITLE "3:cjc153_1808"
    INDEX 01 00:20:51
  TRACK 27 AUDIO
    TITLE "0:"
    INDEX 01 00:22:03
  TRACK 28 AUDIO
    TITLE "2:cjc153_1809"
    INDEX 01 00:22:48
  TRACK 29 AUDIO
    TITLE "0:"
    INDEX 01 00:23:57
  TRACK 30 AUDIO
    TITLE "3:cjc153_1810"
    INDEX 01 00:24:16
  TRACK 31 AUDIO
    TITLE "0:"
    INDEX 01 00:25:33
  TRACK 32 AUDIO
    TITLE "2:cjc153_1811"
    INDEX 01 00:26:05
  TRACK 33 AUDIO
    TITLE "0:"
    INDEX 01 00:27:12
  TRACK 34 AUDIO
    TITLE "3:cjc153_1812"
    INDEX 01 00:27:45
  TRACK 35 AUDIO
    TITLE "0:"
    INDEX 01 00:28:64
  TRACK 36 AUDIO
    TITLE "2:cjc153_1813"
    INDEX 01 00:29:33
  TRACK 37 AUDIO
    TITLE "0:"
    INDEX 01 00:30:48
  TRACK 38 AUDIO
    TITLE "3:cjc153_1814"
    INDEX 01 00:31:06
  TRACK 39 AUDIO
    TITLE "0:"
    INDEX 01 00:32:21
  TRACK 40 AUDIO
    TITLE "2:cjc153_1815"
    INDEX 01 00:32:66
  TRACK 41 AUDIO
    TITLE "0:"
    INDEX 01 00:34:24
  TRACK 42 AUDIO
    TITLE "3:cjc153_1816"
    INDEX 01 00:34:55
  TRACK 43 AUDIO
    TITLE "0:"
    INDEX 01 00:36:13
  TRACK 44 AUDIO
    TITLE "2:cjc153_1817"
    INDEX 01 00:36:58
  TRACK 45 AUDIO
    TITLE "0:"
    INDEX 01 00:38:00
  TRACK 46 AUDIO
    TITLE "3:cjc153_1818"
    INDEX 01 00:38:33
  TRACK 47 AUDIO
    TITLE "0:"
    INDEX 01 00:39:58
  TRACK 48 AUDIO
    TITLE "2:cjc153_1819"
    INDEX 01 00:40:28
  TRACK 49 AUDIO
    TITLE "0:"
    INDEX 01 00:41:24
  TRACK 50 AUDIO
    TITLE "3:cjc153_1820"
    INDEX 01 00:41:57
  TRACK 51 AUDIO
    TITLE "0:"
    INDEX 01 00:42:63
  TRACK 52 AUDIO
    TITLE "2:cjc153_1821"
    INDEX 01 00:43:33
  TRACK 53 AUDIO
    TITLE "0:"
    INDEX 01 00:44:42
  TRACK 54 AUDIO
    TITLE "3:cjc153_1822"
    INDEX 01 00:44:73
  TRACK 55 AUDIO
    TITLE "0:"
    INDEX 01 00:46:09
  TRACK 56 AUDIO
    TITLE "2:cjc153_1823"
    INDEX 01 00:46:56
  TRACK 57 AUDIO
    TITLE "0:"
    INDEX 01 00:47:66
  TRACK 58 AUDIO
    TITLE "3:cjc153_1824"
    INDEX 01 00:48:20
  TRACK 59 AUDIO
    TITLE "0:"
    INDEX 01 00:49:33
  TRACK 60 AUDIO
    TITLE "2:cjc153_1825"
    INDEX 01 00:50:05
  TRACK 61 AUDIO
    TITLE "0:"
    INDEX 01 00:51:16
  TRACK 62 AUDIO
    TITLE "3:cjc153_1826"
    INDEX 01 00:51:48
  TRACK 63 AUDIO
    TITLE "0:"
    INDEX 01 00:52:63
  TRACK 64 AUDIO
    TITLE "2:cjc153_1827"
    INDEX 01 00:53:31
  TRACK 65 AUDIO
    TITLE "0:"
    INDEX 01 00:54:46
  TRACK 66 AUDIO
    TITLE "3:cjc153_1828"
    INDEX 01 00:55:03
  TRACK 67 AUDIO
    TITLE "0:"
    INDEX 01 00:56:22
  TRACK 68 AUDIO
    TITLE "2:cjc153_1829"
    INDEX 01 00:56:69
  TRACK 69 AUDIO
    TITLE "0:"
    INDEX 01 00:57:72
  TRACK 70 AUDIO
    TITLE "3:cjc153_1830"
    INDEX 01 00:58:32
  TRACK 71 AUDIO
    TITLE "0:"
    INDEX 01 00:59:39
  TRACK 72 AUDIO
    TITLE "2:cjc153_1831"
    INDEX 01 01:00:12
  TRACK 73 AUDIO
    TITLE "0:"
    INDEX 01 01:01:15
  TRACK 74 AUDIO
    TITLE "3:cjc153_1832"
    INDEX 01 01:01:48
  TRACK 75 AUDIO
    TITLE "0:"
    INDEX 01 01:02:61
  TRACK 76 AUDIO
    TITLE "2:cjc153_1833"
    INDEX 01 01:03:31
  TRACK 77 AUDIO
    TITLE "0:"
    INDEX 01 01:04:48
  TRACK 78 AUDIO
    TITLE "3:cjc153_1834"
    INDEX 01 01:05:09
  TRACK 79 AUDIO
    TITLE "0:"
    INDEX 01 01:06:30
  TRACK 80 AUDIO
    TITLE "2:cjc153_1835"
    INDEX 01 01:07:00
  TRACK 81 AUDIO
    TITLE "0:"
    INDEX 01 01:08:03
  TRACK 82 AUDIO
    TITLE "3:cjc153_1836"
    INDEX 01 01:08:36
  TRACK 83 AUDIO
    TITLE "0:"
    INDEX 01 01:09:42
  TRACK 84 AUDIO
    TITLE "2:cjc153_1837"
    INDEX 01 01:10:14
  TRACK 85 AUDIO
    TITLE "0:"
    INDEX 01 01:11:03
  TRACK 86 AUDIO
    TITLE "3:cjc153_1838"
    INDEX 01 01:11:39
  TRACK 87 AUDIO
    TITLE "0:"
    INDEX 01 01:12:36
  TRACK 88 AUDIO
    TITLE "2:cjc153_1839"
    INDEX 01 01:13:06
  TRACK 89 AUDIO
    TITLE "0:"
    INDEX 01 01:14:33
  TRACK 90 AUDIO
    TITLE "3:cjc153_1840"
    INDEX 01 01:14:66
  TRACK 91 AUDIO
    TITLE "0:"
    INDEX 01 01:16:24
  TRACK 92 AUDIO
    TITLE "2:cjc153_1841"
    INDEX 01 01:16:71
  TRACK 93 AUDIO
    TITLE "0:"
    INDEX 01 01:18:13
  TRACK 94 AUDIO
    TITLE "3:cjc153_1842"
    INDEX 01 01:18:45
  TRACK 95 AUDIO
    TITLE "0:"
    INDEX 01 01:19:70
  TRACK 96 AUDIO
    TITLE "2:cjc153_1843"
    INDEX 01 01:20:38
  TRACK 97 AUDIO
    TITLE "0:"
    INDEX 01 01:21:51
  TRACK 98 AUDIO
    TITLE "3:cjc153_1844"
    INDEX 01 01:22:05
  TRACK 99 AUDIO
    TITLE "0:"
    INDEX 01 01:23:24
  TRACK 100 AUDIO
    TITLE "2:cjc153_1845"
    INDEX 01 01:23:67
  TRACK 101 AUDIO
    TITLE "0:"
    INDEX 01 01:24:73
  TRACK 102 AUDIO
    TITLE "3:cjc153_1846"
    INDEX 01 01:25:29
  TRACK 103 AUDIO
    TITLE "0:"
    INDEX 01 01:26:36
  TRACK 104 AUDIO
    TITLE "2:cjc153_1847"
    INDEX 01 01:27:08
  TRACK 105 AUDIO
    TITLE "0:"
    INDEX 01 01:28:00
  TRACK 106 AUDIO
    TITLE "3:cjc153_1848"
    INDEX 01 01:28:33
  TRACK 107 AUDIO
    TITLE "0:"
    INDEX 01 01:29:33
  TRACK 108 AUDIO
    TITLE "2:cjc153_1849"
    INDEX 01 01:30:01
  TRACK 109 AUDIO
    TITLE "0:"
    INDEX 01 01:31:18
  TRACK 110 AUDIO
    TITLE "3:cjc153_1850"
    INDEX 01 01:31:49
  TRACK 111 AUDIO
    TITLE "0:"
    INDEX 01 01:33:03
  TRACK 112 AUDIO
    TITLE "2:cjc153_1851"
    INDEX 01 01:33:48
  TRACK 113 AUDIO
    TITLE "0:"
    INDEX 01 01:34:42
  TRACK 114 AUDIO
    TITLE "3:cjc153_1852"
    INDEX 01 01:35:00
  TRACK 115 AUDIO
    TITLE "0:"
    INDEX 01 01:36:03
  TRACK 116 AUDIO
    TITLE "2:cjc153_1853"
    INDEX 01 01:36:48
  TRACK 117 AUDIO
    TITLE "0:"
    INDEX 01 01:38:12
  TRACK 118 AUDIO
    TITLE "3:cjc153_1854"
    INDEX 01 01:38:43
  TRACK 119 AUDIO
    TITLE "0:"
    INDEX 01 01:40:07
  TRACK 120 AUDIO
    TITLE "2:cjc153_1855"
    INDEX 01 01:40:50
  TRACK 121 AUDIO
    TITLE "0:"
    INDEX 01 01:41:63
  TRACK 122 AUDIO
    TITLE "3:cjc153_1856"
    INDEX 01 01:42:20
  TRACK 123 AUDIO
    TITLE "0:"
    INDEX 01 01:43:39
  TRACK 124 AUDIO
    TITLE "2:cjc153_1857"
    INDEX 01 01:44:09
  TRACK 125 AUDIO
    TITLE "0:"
    INDEX 01 01:45:16
  TRACK 126 AUDIO
    TITLE "3:cjc153_1858"
    INDEX 01 01:45:47
  TRACK 127 AUDIO
    TITLE "0:"
    INDEX 01 01:46:63
  TRACK 128 AUDIO
    TITLE "2:cjc153_1859"
    INDEX 01 01:47:31
  TRACK 129 AUDIO
    TITLE "0:"
    INDEX 01 01:48:60
  TRACK 130 AUDIO
    TITLE "3:cjc153_1860"
    INDEX 01 01:49:16
  TRACK 131 AUDIO
    TITLE "0:"
    INDEX 01 01:50:53
  TRACK 132 AUDIO
    TITLE "2:cjc153_1861"
    INDEX 01 01:51:21
  TRACK 133 AUDIO
    TITLE "0:"
    INDEX 01 01:52:36
  TRACK 134 AUDIO
    TITLE "3:cjc153_1862"
    INDEX 01 01:52:71
  TRACK 135 AUDIO
    TITLE "0:"
    INDEX 01 01:54:15
  TRACK 136 AUDIO
    TITLE "2:cjc153_1863"
    INDEX 01 01:54:60
  TRACK 137 AUDIO
    TITLE "0:"
    INDEX 01 01:55:69
  TRACK 138 AUDIO
    TITLE "3:cjc153_1864"
    INDEX 01 01:56:28
  TRACK 139 AUDIO
    TITLE "0:"
    INDEX 01 01:57:45
  TRACK 140 AUDIO
    TITLE "2:cjc153_1865"
    INDEX 01 01:58:13
  TRACK 141 AUDIO
    TITLE "0:"
    INDEX 01 01:59:22
  TRACK 142 AUDIO
    TITLE "3:cjc153_1866"
    INDEX 01 01:59:53
  TRACK 143 AUDIO
    TITLE "0:"
    INDEX 01 02:00:63
  TRACK 144 AUDIO
    TITLE "2:cjc153_1867"
    INDEX 01 02:01:33
  TRACK 145 AUDIO
    TITLE "0:"
    INDEX 01 02:02:48
  TRACK 146 AUDIO
    TITLE "3:cjc153_1868"
    INDEX 01 02:03:06
  TRACK 147 AUDIO
    TITLE "0:"
    INDEX 01 02:04:31
  TRACK 148 AUDIO
    TITLE "2:cjc153_1869"
    INDEX 01 02:05:01
  TRACK 149 AUDIO
    TITLE "0:"
    INDEX 01 02:06:12
  TRACK 150 AUDIO
    TITLE "3:cjc153_1870"
    INDEX 01 02:06:44
  TRACK 151 AUDIO
    TITLE "0:"
    INDEX 01 02:07:57
  TRACK 152 AUDIO
    TITLE "2:cjc153_1871"
    INDEX 01 02:08:29
  TRACK 153 AUDIO
    TITLE "0:"
    INDEX 01 02:09:30
  TRACK 154 AUDIO
    TITLE "3:cjc153_1872"
    INDEX 01 02:09:60
  TRACK 155 AUDIO
    TITLE "0:"
    INDEX 01 02:10:69
  TRACK 156 AUDIO
    TITLE "2:cjc153_1873"
    INDEX 01 02:11:39
  TRACK 157 AUDIO
    TITLE "0:"
    INDEX 01 02:12:42
  TRACK 158 AUDIO
    TITLE "3:cjc153_1874"
    INDEX 01 02:13:01
  TRACK 159 AUDIO
    TITLE "0:"
    INDEX 01 02:14:16
  TRACK 160 AUDIO
    TITLE "2:cjc153_1875"
    INDEX 01 02:14:61
  TRACK 161 AUDIO
    TITLE "0:"
    INDEX 01 02:15:66
  TRACK 162 AUDIO
    TITLE "3:cjc153_1876"
    INDEX 01 02:16:26
  TRACK 163 AUDIO
    TITLE "0:"
    INDEX 01 02:17:40
  TRACK 164 AUDIO
    TITLE "2:cjc153_1877"
    INDEX 01 02:18:08
  TRACK 165 AUDIO
    TITLE "0:"
    INDEX 01 02:19:03
  TRACK 166 AUDIO
    TITLE "3:cjc153_1878"
    INDEX 01 02:19:39
  TRACK 167 AUDIO
    TITLE "0:"
    INDEX 01 02:20:42
  TRACK 168 AUDIO
    TITLE "2:cjc153_1879"
    INDEX 01 02:21:10
  TRACK 169 AUDIO
    TITLE "0:"
    INDEX 01 02:22:27
  TRACK 170 AUDIO
    TITLE "3:cjc153_1880"
    INDEX 01 02:22:60
  TRACK 171 AUDIO
    TITLE "0:"
    INDEX 01 02:24:12
  TRACK 172 AUDIO
    TITLE "2:cjc153_1881"
    INDEX 01 02:24:57
  TRACK 173 AUDIO
    TITLE "0:"
    INDEX 01 02:25:72
  TRACK 174 AUDIO
    TITLE "3:cjc153_1882"
    INDEX 01 02:26:31
  TRACK 175 AUDIO
    TITLE "0:"
    INDEX 01 02:27:52
  TRACK 176 AUDIO
    TITLE "2:cjc153_1883"
    INDEX 01 02:28:20
  TRACK 177 AUDIO
    TITLE "0:"
    INDEX 01 02:29:25
  TRACK 178 AUDIO
    TITLE "3:cjc153_1884"
    INDEX 01 02:29:58
  TRACK 179 AUDIO
    TITLE "0:"
    INDEX 01 02:30:66
  TRACK 180 AUDIO
    TITLE "2:cjc153_1885"
    INDEX 01 02:31:38
  TRACK 181 AUDIO
    TITLE "0:"
    INDEX 01 02:32:33
  TRACK 182 AUDIO
    TITLE "3:cjc153_1886"
    INDEX 01 02:32:65
  TRACK 183 AUDIO
    TITLE "0:"
    INDEX 01 02:33:66
  TRACK 184 AUDIO
    TITLE "2:cjc153_1887"
    INDEX 01 02:34:36
  TRACK 185 AUDIO
    TITLE "0:"
    INDEX 01 02:35:34
  TRACK 186 AUDIO
    TITLE "3:cjc153_1888"
    INDEX 01 02:35:65
  TRACK 187 AUDIO
    TITLE "0:"
    INDEX 01 02:36:72
  TRACK 188 AUDIO
    TITLE "2:cjc153_1889"
    INDEX 01 02:37:40
  TRACK 189 AUDIO
    TITLE "0:"
    INDEX 01 02:38:40
  TRACK 190 AUDIO
    TITLE "3:cjc153_1890"
    INDEX 01 02:38:71
  TRACK 191 AUDIO
    TITLE "0:"
    INDEX 01 02:40:01
